name D:\school\WTK\thesis\model\3dpredictsim\Results\MidTarsalJoint\Fal_s1_bCst_PF_Natali2010_ls150_MT_k30_MTP_Mu2_ig24_PFx10.mot
datacolumns 128
datarows 4
range 1.65242079 1.68546920
endheader
time	pelvis_tilt	pelvis_list	pelvis_rotation	pelvis_tx	pelvis_ty	pelvis_tz	hip_flexion_l	hip_adduction_l	hip_rotation_l	hip_flexion_r	hip_adduction_r	hip_rotation_r	knee_angle_l	knee_angle_r	ankle_angle_l	ankle_angle_r	subtalar_angle_l	subtalar_angle_r	tmt_angle_l	tmt_angle_r	mtp_angle_l	mtp_angle_r	lumbar_extension	lumbar_bending	lumbar_rotation	arm_flex_l	arm_add_l	arm_rot_l	arm_flex_r	arm_add_r	arm_rot_r	elbow_flex_l	elbow_flex_r	pro_sup_l	pro_sup_r	glut_med1_l/activation	glut_med2_l/activation	glut_med3_l/activation	glut_min1_l/activation	glut_min2_l/activation	glut_min3_l/activation	semimem_l/activation	semiten_l/activation	bifemlh_l/activation	bifemsh_l/activation	sar_l/activation	add_long_l/activation	add_brev_l/activation	add_mag1_l/activation	add_mag2_l/activation	add_mag3_l/activation	tfl_l/activation	pect_l/activation	grac_l/activation	glut_max1_l/activation	glut_max2_l/activation	glut_max3_l/activation	iliacus_l/activation	psoas_l/activation	quad_fem_l/activation	gem_l/activation	peri_l/activation	rect_fem_l/activation	vas_med_l/activation	vas_int_l/activation	vas_lat_l/activation	med_gas_l/activation	lat_gas_l/activation	soleus_l/activation	tib_post_l/activation	flex_dig_l/activation	flex_hal_l/activation	tib_ant_l/activation	per_brev_l/activation	per_long_l/activation	per_tert_l/activation	ext_dig_l/activation	ext_hal_l/activation	ercspn_l/activation	intobl_l/activation	extobl_l/activation	glut_med1_r/activation	glut_med2_r/activation	glut_med3_r/activation	glut_min1_r/activation	glut_min2_r/activation	glut_min3_r/activation	semimem_r/activation	semiten_r/activation	bifemlh_r/activation	bifemsh_r/activation	sar_r/activation	add_long_r/activation	add_brev_r/activation	add_mag1_r/activation	add_mag2_r/activation	add_mag3_r/activation	tfl_r/activation	pect_r/activation	grac_r/activation	glut_max1_r/activation	glut_max2_r/activation	glut_max3_r/activation	iliacus_r/activation	psoas_r/activation	quad_fem_r/activation	gem_r/activation	peri_r/activation	rect_fem_r/activation	vas_med_r/activation	vas_int_r/activation	vas_lat_r/activation	med_gas_r/activation	lat_gas_r/activation	soleus_r/activation	tib_post_r/activation	flex_dig_r/activation	flex_hal_r/activation	tib_ant_r/activation	per_brev_r/activation	per_long_r/activation	per_tert_r/activation	ext_dig_r/activation	ext_hal_r/activation	ercspn_r/activation	intobl_r/activation	extobl_r/activation	
          1.65242079	         -2.92999852	          2.59723545	         -4.70042673	          2.06552598	          0.92291734	          0.00181918	         25.82664409	          4.30870592	         -1.92162928	        -15.62143315	         -0.82295283	          5.96556080	         -4.29013569	         -7.93664067	          3.77896302	          3.34124431	         -8.45092406	          6.61114627	         -4.42103336	          1.41667908	         14.33091231	         -0.76272901	         -1.99274442	         -1.00906056	          1.94608326	         -5.10047960	        -13.46468325	          5.12822087	          4.97843897	        -13.45540211	         17.24781569	         16.78207930	         33.67350721	         86.51662706	         86.51662706	          0.10746942	          0.05000034	          0.05918012	          0.05000007	          0.05000012	          0.05000070	          0.10291136	          0.05918036	          0.20024504	          0.05000013	          0.05000023	          0.13319267	          0.30075153	          0.23849887	          0.19494975	          0.12533723	          0.05917965	          0.05000454	          0.10151631	          0.07004577	          0.09945876	          0.10857954	          0.05000004	          0.05000005	          0.18636406	          0.05000164	          0.05000014	          0.06076967	          0.12559164	          0.12784948	          0.10142522	          0.05000030	          0.05000051	          0.05918009	          0.05077723	          0.05000081	          0.05000051	          0.55543497	          0.34690777	          0.23167222	          0.09204245	          0.32713028	          0.05000010	          0.06550698	          0.11124968	          0.10434836	          0.36803329	          0.11614440	          0.08290676	          0.35260749	          0.22428697	          0.11614481	          0.05000089	          0.05000019	          0.05000013	          0.05871800	          0.11383331	          0.05000006	          0.05000006	          0.05000012	          0.05000036	          0.05000027	          0.41772339	          0.05000027	          0.05000042	          0.05917792	          0.05232427	          0.05000124	          0.38828727	          0.64903075	          0.05000204	          0.05020153	          0.07004564	          0.14685429	          0.05000027	          0.05000018	          0.05000016	          0.28874454	          0.40529807	          0.38336242	          0.26723619	          0.30559980	          0.38301811	          0.05000003	          0.08564895	          0.19614092	          0.05000014	          0.05000005	          0.05000023	          0.05000000	          0.05000000	          0.05000002	
          1.66343692	         -2.92924298	          2.70646823	         -4.95313357	          2.08192225	          0.92219413	          0.00162924	         24.92698111	          4.70295558	         -1.67243572	        -15.46817450	         -1.08507099	          5.76222525	         -3.74935357	         -9.89456742	          3.14710563	          2.87417686	         -8.64543060	          7.28108229	         -4.36496743	          0.98506503	         14.12580383	          0.13139295	         -1.79203101	         -1.21859673	          2.00410757	         -5.87363308	        -13.46107433	          4.84346145	          4.69340478	        -13.46864443	         17.47575933	         16.45517390	         34.74609488	         86.51662706	         86.51662706	          0.09079861	          0.05000020	          0.05000009	          0.05834458	          0.05000084	          0.05000016	          0.08694767	          0.05000026	          0.17557350	          0.05000006	          0.05000040	          0.11614481	          0.29739400	          0.29934474	          0.24417216	          0.12920873	          0.05000004	          0.06883931	          0.08576923	          0.05918024	          0.08403064	          0.12857006	          0.05000016	          0.05000017	          0.50853663	          0.13559550	          0.05000205	          0.08290540	          0.21240387	          0.21518252	          0.16436859	          0.05000000	          0.05000001	          0.05000000	          0.05264244	          0.05918004	          0.05918053	          0.61836130	          0.29309520	          0.26968748	          0.28407019	          0.27638544	          0.05918067	          0.05534544	          0.09399246	          0.08816168	          0.31094428	          0.09812791	          0.07004614	          0.29791062	          0.18949527	          0.09812827	          0.05000077	          0.05000014	          0.05000015	          0.05000017	          0.09617548	          0.08166775	          0.06258865	          0.05000106	          0.05000126	          0.05000058	          0.35292698	          0.07118767	          0.05000134	          0.05000058	          0.05000032	          0.05000031	          0.32805557	          0.58684950	          0.05000007	          0.05000074	          0.05918022	          0.12407422	          0.05000061	          0.09542022	          0.12933677	          0.24395403	          0.34242763	          0.35224911	          0.26547443	          0.35453038	          0.41453699	          0.05000002	          0.08102346	          0.19587143	          0.05000017	          0.05000004	          0.05000017	          0.05483090	          0.07004569	          0.05000002	
          1.67445306	         -2.92477624	          2.81873863	         -5.17986741	          2.09858400	          0.92152125	          0.00145994	         23.96225717	          5.00895631	         -1.37988293	        -15.24324659	         -1.35159357	          5.55684439	         -3.67270682	        -11.96725049	          2.44305093	          2.25668999	         -8.84506952	          7.93678858	         -4.41072303	          0.39967997	         14.02701322	          1.38501682	         -1.57348184	         -1.43972968	          2.04982575	         -6.66567001	        -13.46488832	          4.60975341	          4.33385614	        -13.47934161	         17.63314158	         16.16433476	         35.80975269	         86.51662706	         86.51662706	          0.31011362	          0.05000008	          0.13879855	          0.05000013	          0.05000011	          0.05000024	          0.10228449	          0.05000042	          0.15799630	          0.05000005	          0.05000011	          0.09812829	          0.25126187	          0.25290999	          0.20629589	          0.11576673	          0.05000059	          0.05924544	          0.10464850	          0.05000020	          0.07099574	          0.10862610	          0.05000014	          0.05000009	          0.42965162	          0.11456175	          0.15363988	          0.07004499	          0.17945551	          0.18180313	          0.13887155	          0.05866958	          0.05917990	          0.05918010	          0.05000003	          0.05000030	          0.05000064	          0.62588567	          0.43442063	          0.23740218	          0.39170934	          0.23351214	          0.05000048	          0.05000001	          0.11363073	          0.07448590	          0.33481597	          0.08290617	          0.05918049	          0.25169840	          0.16010050	          0.08290648	          0.05000105	          0.05000035	          0.05000029	          0.05000008	          0.08125672	          0.13019338	          0.05288091	          0.05917968	          0.05207953	          0.05918044	          0.31263524	          0.06014553	          0.05000109	          0.05009669	          0.05451457	          0.05917894	          0.27716719	          0.56219732	          0.05184442	          0.05000062	          0.05000013	          0.10482765	          0.11122302	          0.08061941	          0.10927404	          0.20611149	          0.28930972	          0.29760766	          0.22521703	          0.36860301	          0.44400268	          0.05000001	          0.10244915	          0.21501898	          0.05000007	          0.05000002	          0.05000010	          0.05349379	          0.05918010	          0.05918009	
          1.68546920	         -2.91851004	          2.93895237	         -5.37339913	          2.11536512	          0.92093246	          0.00128375	         22.92594320	          5.25824023	         -1.07978374	        -14.91817509	         -1.62374856	          5.35829018	         -3.61049062	        -14.18037449	          1.76951636	          1.45521547	         -9.03595135	          8.56074551	         -4.39626019	         -0.32653146	         14.00756172	          3.04349240	         -1.35305833	         -1.67746233	          2.08682989	         -7.43979809	        -13.47493172	          4.43401429	          3.92015651	        -13.49000985	         17.73006772	         15.89274720	         36.85035163	         86.51662706	         86.51662706	          0.35548362	          0.25694191	          0.27168585	          0.07194297	          0.20639376	          0.19715805	          0.08714285	          0.09919659	          0.13348777	          0.08278963	          0.05000566	          0.08290649	          0.21228574	          0.21367826	          0.17429506	          0.11385517	          0.05000027	          0.05005537	          0.08841562	          0.18595513	          0.12294899	          0.09177590	          0.05000008	          0.05000010	          0.36300339	          0.09679086	          0.12980712	          0.05917951	          0.15161812	          0.15360158	          0.11732961	          0.05000002	          0.05000005	          0.05000000	          0.05000004	          0.09732783	          0.07712333	          0.74484616	          0.46419889	          0.26478897	          0.57806423	          0.30842660	          0.07901788	          0.07066370	          0.09813230	          0.06293154	          0.29926735	          0.07004565	          0.05000037	          0.30371766	          0.13526552	          0.07004593	          0.05000169	          0.05000013	          0.05000012	          0.05000012	          0.06865252	          0.12496168	          0.05000049	          0.05000060	          0.05000088	          0.05000079	          0.35811404	          0.05663870	          0.05000068	          0.05000102	          0.05000064	          0.05000051	          0.23417261	          0.51224217	          0.05000011	          0.05000083	          0.05000035	          0.08856672	          0.09613018	          0.06811406	          0.11614401	          0.17413914	          0.24443153	          0.25144228	          0.19028106	          0.31142544	          0.37797925	          0.05000001	          0.11899485	          0.21068561	          0.05000008	          0.05000002	          0.05000009	          0.06016605	          0.05000001	          0.05000002	
